<svg height="511pt" viewBox="-34 0 511 511.99971" width="511pt" xmlns="http://www.w3.org/2000/svg"><path d="m352.382812 511.960938c-38.039062 0-68.875-30.835938-68.875-68.875v-33.632813c0-6.25 5.066407-11.316406 11.316407-11.316406h111.269531c5.496094 0 10.210938 3.949219 11.152344 9.363281 1.871094 10.78125 3.148437 20.835938 3.839844 30.617188 2.808593 39.898437-28.707032 73.84375-68.703126 73.84375zm0 0" fill="#423e38"/><path d="m421.082031 438.117188c-.6875-9.78125-1.96875-19.832032-3.835937-30.617188-.941406-5.414062-5.65625-9.363281-11.152344-9.363281h-30.902344c5.496094 0 10.214844 3.949219 11.152344 9.363281 1.871094 10.78125 3.148438 20.835938 3.839844 30.617188 2.433594 34.589843-20.925782 64.703124-53.246094 72.105468 45.160156 10.34375 87.398438-25.910156 84.144531-72.105468zm0 0" fill="#302e29"/><path d="m91.660156 511.960938c38.039063 0 68.875-30.835938 68.875-68.875v-33.632813c0-6.25-5.066406-11.316406-11.320312-11.316406h-111.265625c-5.496094 0-10.214844 3.949219-11.152344 9.363281-1.871094 10.78125-3.152344 20.835938-3.839844 30.617188-2.808593 39.898437 28.707031 73.84375 68.703125 73.84375zm0 0" fill="#423e38"/><path d="m149.214844 398.136719h-24.726563c6.25 0 11.320313 5.066406 11.320313 11.320312v33.628907c0 33.820312-24.378906 61.921874-56.515625 67.75 4.007812.726562 8.136719 1.128906 12.367187 1.128906 38.039063 0 68.875-30.839844 68.875-68.875v-33.632813c0-6.253906-5.066406-11.320312-11.320312-11.320312zm0 0" fill="#302e29"/><path d="m442.332031 175.070312c-7.703125-54.582031-23.851562-101.75-49.511719-140.566406-37.597656-56.867187-124.355468-39.863281-139.308593 24.828125-11.140625 48.183594-10.480469 94.53125-.113281 138.910157 6.808593 29.144531 26.066406 65.070312 25.691406 133.839843-.113282 20.8125 16.539062 37.816407 37.347656 37.816407h67.3125c19.507812 0 35.765625-14.941407 37.417969-34.375 5.882812-69.359376 27.699219-103.429688 21.164062-160.453126zm0 0" fill="#2c5771"/><path d="m442.332031 175.070312c-7.703125-54.582031-23.851562-101.75-49.511719-140.566406-17.449218-26.390625-49.132812-39.175781-79.746093-32.941406 19.804687 4.039062 37.472656 15.742188 48.84375 32.941406 25.660156 38.816406 41.808593 85.984375 49.515625 140.566406 6.53125 57.023438-15.28125 91.09375-21.167969 160.453126-1.648437 19.4375-17.910156 34.375-37.414063 34.375h30.902344c19.503906 0 35.765625-14.9375 37.414063-34.375 5.882812-69.359376 27.699219-103.429688 21.164062-160.453126zm0 0" fill="#24475c"/><path d="m190.53125 59.332031c-15.167969-65.613281-102.246094-80.890625-139.308594-24.828125-27.113281 41.015625-42.410156 90.230469-49.515625 140.566406-6.53125 57.023438 15.28125 91.09375 21.167969 160.453126 1.648438 19.4375 17.910156 34.375 37.414062 34.375h67.3125c20.808594 0 37.464844-17.003907 37.351563-37.816407-.207031-37.277343 5.808594-72.949219 17.71875-107.101562 17.519531-50.242188 21.390625-107.117188 7.859375-165.648438zm0 0" fill="#2c5771"/><path d="m190.53125 59.332031c-10.25-44.34375-53.339844-65.6875-91.644531-57.566406 27.316406 5.71875 51.632812 25.707031 58.996093 57.566406 13.53125 58.53125 9.664063 115.40625-7.855468 165.648438-11.910156 34.152343-17.925782 69.824219-17.722656 107.101562.113281 20.8125-16.539063 37.816407-37.347657 37.816407h32.644531c20.8125 0 37.464844-17.003907 37.351563-37.816407-.207031-37.277343 5.808594-72.949219 17.71875-107.101562 17.519531-50.242188 21.390625-107.117188 7.859375-165.648438zm0 0" fill="#24475c"/></svg>